<?xml version="1.0" standalone="no"?>
<!DOCTYPE svg PUBLIC "-//W3C//DTD SVG 20010904//EN"
 "http://www.w3.org/TR/2001/REC-SVG-20010904/DTD/svg10.dtd">
<svg version="1.0" xmlns="http://www.w3.org/2000/svg"
 width="700.000000pt" height="700.000000pt" viewBox="0 0 700.000000 700.000000"
 preserveAspectRatio="xMidYMid meet">
<metadata>
Created by potrace 1.14, written by Peter Selinger 2001-2017
</metadata>
<g transform="translate(0.000000,700.000000) scale(0.100000,-0.100000)"
fill="#e06246" stroke="none">
<path d="M3567 5184 c-1 -1 -42 -5 -90 -8 -151 -11 -294 -50 -432 -118 -72
-35 -185 -103 -225 -135 -8 -7 -33 -26 -55 -43 -61 -48 -83 -70 -645 -640
-289 -293 -564 -572 -612 -620 -49 -47 -88 -92 -88 -98 0 -6 62 -74 138 -151
374 -380 770 -779 779 -784 9 -6 210 192 633 623 350 356 1397 1416 1429 1446
l35 32 -29 39 c-74 98 -228 235 -350 310 -112 70 -264 127 -369 139 -72 8
-116 11 -119 8z"/>
<path d="M5887 5184 c-1 -1 -40 -4 -87 -7 -188 -14 -353 -65 -524 -162 -183
-104 -153 -75 -1539 -1478 -493 -498 -1033 -1046 -1135 -1150 l-36 -37 154
-156 c99 -99 185 -175 238 -211 340 -228 782 -219 1112 22 36 26 169 152 295
280 127 128 498 504 825 835 327 331 693 701 813 823 120 122 335 340 478 483
142 144 259 265 259 269 0 20 -148 176 -235 248 -45 37 -175 121 -215 139
-103 46 -130 57 -182 72 -48 14 -213 36 -221 30z"/>
<path d="M1041 5160 c-216 -44 -395 -128 -576 -273 -64 -51 -205 -186 -205
-196 0 -3 210 -217 465 -476 l465 -470 465 470 c255 259 465 473 465 477 0 4
-22 33 -48 65 -151 180 -348 318 -557 389 -71 24 -97 27 -230 30 -116 2 -172
-2 -244 -16z"/>
</g>
</svg>
